HIERARCHY
ROOT Hips
{
	OFFSET -3.958830 18.904000 13.208200
	CHANNELS 6 Xposition Yposition Zposition Zrotation Yrotation Xrotation 
	JOINT LHipJoint
	{
		OFFSET 0.000000 0.000000 0.000000
		CHANNELS 3 Zrotation Yrotation Xrotation
		JOINT LeftUpLeg
		{
			OFFSET 1.800000 -1.400000 0.085000
			CHANNELS 3 Zrotation Yrotation Xrotation
			JOINT LeftLeg
			{
				OFFSET 2.215000 -6.000000 0.000000
				CHANNELS 3 Zrotation Yrotation Xrotation
				JOINT LeftFoot
				{
					OFFSET 2.500000 -6.900000 0.000000
					CHANNELS 3 Zrotation Yrotation Xrotation
					JOINT LeftToeBase
					{
						OFFSET 0.200000 -0.500000 1.950000
						CHANNELS 3 Zrotation Yrotation Xrotation
						End Site
						{
							OFFSET 0.000000 0.000000 0.000000
						}
					}
				}
			}
		}
	}
	JOINT RHipJoint
	{
		OFFSET 0.000000 0.000000 0.000000
		CHANNELS 3 Zrotation Yrotation Xrotation
		JOINT RightUpLeg
		{
			OFFSET -1.800000 -1.400000 0.085000
			CHANNELS 3 Zrotation Yrotation Xrotation
			JOINT RightLeg
			{
				OFFSET -2.215000 -6.000000 0.000000
				CHANNELS 3 Zrotation Yrotation Xrotation
				JOINT RightFoot
				{
					OFFSET -2.500000 -6.900000 0.000000
					CHANNELS 3 Zrotation Yrotation Xrotation
					JOINT RightToeBase
					{
						OFFSET -0.200000 -0.500000 1.950000
						CHANNELS 3 Zrotation Yrotation Xrotation
						End Site
						{
							OFFSET 0.000000 0.000000 0.000000
						}
					}
				}
			}
		}
	}
	JOINT LowerBack
	{
		OFFSET 0.000000 0.000000 0.000000
		CHANNELS 3 Zrotation Yrotation Xrotation
		JOINT Spine
		{
			OFFSET -0.087000 1.940000 -0.288900
			CHANNELS 3 Zrotation Yrotation Xrotation
			JOINT Spine1
			{
				OFFSET 0.000000 1.950000 0.060000
				CHANNELS 3 Zrotation Yrotation Xrotation
				JOINT Neck
				{
					OFFSET 0.000000 0.000000 0.000000
					CHANNELS 3 Zrotation Yrotation Xrotation
					JOINT Neck1
					{
						OFFSET 0.000000 1.600000 0.340000
						CHANNELS 3 Zrotation Yrotation Xrotation
						JOINT Head
						{
							OFFSET 0.000000 1.667000 -0.240000
							CHANNELS 3 Zrotation Yrotation Xrotation
							End Site
							{
								OFFSET 0.000000 0.000000 0.000000
							}
						}
					}
				}
				JOINT LeftShoulder
				{
					OFFSET 0.000000 0.000000 0.000000
					CHANNELS 3 Zrotation Yrotation Xrotation
					JOINT LeftArm
					{
						OFFSET 2.700000 1.550000 -0.730000
						CHANNELS 3 Zrotation Yrotation Xrotation
						JOINT LeftForeArm
						{
							OFFSET 5.450000 0.000000 0.000000
							CHANNELS 3 Zrotation Yrotation Xrotation
							JOINT LeftHand
							{
								OFFSET 3.450000 0.000000 0.000000
								CHANNELS 3 Zrotation Yrotation Xrotation
								JOINT LeftHandIndex1
								{
									OFFSET 0.750000 0.000000 0.000000
									CHANNELS 3 Zrotation Yrotation Xrotation
									End Site
									{
										OFFSET 0.000000 0.000000 0.000000
									}
								}
							}
						}
					}
				}
				JOINT RightShoulder
				{
					OFFSET 0.000000 0.000000 0.000000
					CHANNELS 3 Zrotation Yrotation Xrotation
					JOINT RightArm
					{
						OFFSET -2.700000 1.550000 -0.730000
						CHANNELS 3 Zrotation Yrotation Xrotation
						JOINT RightForeArm
						{
							OFFSET -5.450000 0.000000 0.000000
							CHANNELS 3 Zrotation Yrotation Xrotation
							JOINT RightHand
							{
								OFFSET -3.450000 0.000000 0.000000
								CHANNELS 3 Zrotation Yrotation Xrotation
								JOINT RightHandIndex1
								{
									OFFSET -0.750000 0.000000 0.000000
									CHANNELS 3 Zrotation Yrotation Xrotation
									End Site
									{
										OFFSET 0.000000 0.000000 0.000000
									}
								}
							}
						}
					}
				}
			}
		}
	}
}
MOTION
Frames: 7
Frame Time: 0.016667
-1.577280 15.426880 -0.638480 -8.340254 -6.882004 6.570057 -15.347575 11.638950 1.409550 32.876570 8.794443 -18.289579 22.170569 4.689460 19.863866 -0.601326 7.271287 2.268007 -0.735190 -1.327120 -0.622650 18.730241 -8.516965 5.730744 -50.443929 7.399001 -28.124864 33.146787 -5.950318 1.309378 -0.298739 -6.710724 1.911909 -0.455850 1.476120 0.338530 -4.091655 0.246274 -8.222518 5.322183 10.671020 4.165233 -0.120430 9.702787 14.065332 2.766574 -4.684878 -13.511009 -10.854939 7.524069 49.313185 -2.816240 1.849080 12.599940 10.717253 -3.215260 6.484345 0.773561 25.656877 -1.826337 18.765177 -56.794606 -7.436923 -4.324015 2.950670 0.740040 0.723850 -0.523480 0.190190 -14.362516 11.413894 7.127082 -16.452344 16.572346 -3.726166 -111.853140 37.727199 -50.042187 1.888295 -0.909860 -0.994570 0.762670 0.853110 -0.029700 
-1.659430 15.424110 -0.612280 -8.350520 -7.359228 6.091375 -15.259133 11.647278 1.279863 33.015273 8.861261 -16.897146 21.934255 4.644921 20.176096 -0.518032 7.165068 2.334890 -0.616760 -1.142810 -0.573320 18.797937 -8.664691 5.775371 -50.092416 7.395190 -27.228357 32.841479 -5.661785 0.668944 -0.344885 -6.733251 1.927125 -0.381000 1.427630 0.327700 -4.315841 0.549176 -8.164337 6.663655 10.539996 4.345750 -0.982987 9.626583 14.680555 2.942167 -4.777575 -13.309112 -10.537477 7.240910 48.150364 -2.986280 2.015340 11.573170 10.821341 -2.030237 6.283216 -2.109521 24.951802 -2.818381 16.845813 -56.630480 -6.723089 -4.229552 3.033014 0.682980 0.704300 -0.481720 0.261820 -14.901927 10.457757 7.207570 -14.721191 17.916846 -3.280378 -115.920232 34.756439 -51.137707 1.952697 -1.054738 -0.924440 0.743500 0.724790 0.011130 
-1.875990 15.430660 -0.525670 -8.044812 -8.624313 4.474295 -15.097756 11.766283 0.977470 33.281750 9.399284 -13.061228 20.825474 4.815519 20.803476 -0.384398 7.012126 2.452281 -0.502280 -0.885380 -0.569730 18.911449 -8.878887 5.927453 -49.662663 7.571028 -24.744440 33.631170 -5.251634 -0.604107 -0.429702 -6.891788 1.950109 -0.272390 1.390340 0.244140 -4.700351 0.874968 -8.061792 9.213029 9.697754 5.118043 -3.162317 8.698004 15.947549 3.300594 -6.139606 -13.715607 -12.518354 9.423500 47.741142 -2.341100 3.688500 10.667290 10.560910 -0.700382 6.490241 -7.395203 25.222346 -4.757424 4.765315 -50.061284 -1.554076 -4.052259 3.067287 0.612180 0.674490 -0.422200 0.372530 -15.388855 10.586653 7.866116 -10.577948 23.775208 -1.443274 -124.039865 31.267692 -56.627301 2.016077 -1.109272 -0.871200 0.783940 0.551870 0.092010 
-2.098850 15.463560 -0.444590 -7.222620 -6.989730 1.790478 -15.072831 11.696381 0.493762 31.526436 9.501358 -11.211146 22.740930 3.904206 21.685356 -0.112871 6.724430 2.577747 -0.377770 -0.586520 -0.600670 18.963961 -8.926905 6.390236 -51.206479 7.802366 -19.292676 38.707682 -4.519772 -3.989039 -0.704605 -7.612893 1.815435 -0.208670 1.330090 0.333230 -4.756002 1.359675 -7.984221 9.091688 10.994944 5.901147 -1.274251 9.243232 18.010275 4.395613 -3.633737 -13.587883 -6.546183 6.867203 49.298234 -5.093180 5.198140 11.893010 8.346060 1.138520 5.221721 -14.935065 19.905216 -7.164339 2.871038 -49.876240 -1.091230 -3.960231 3.183465 0.421260 0.720200 -0.288820 0.536960 -14.911308 7.540951 9.602050 -1.166722 21.089153 3.247735 -136.630713 26.330530 -65.941263 2.079135 -1.356763 -0.646190 0.678950 0.350940 0.246930 
-2.329500 15.506970 -0.391580 -6.539283 -4.376075 -0.526319 -15.097080 11.665373 0.203389 29.483959 9.015863 -11.153805 24.876654 2.820701 23.304574 0.020471 6.609454 2.570059 -0.270460 -0.428980 -0.564540 18.958778 -8.896990 6.722982 -51.901023 7.840256 -13.825785 43.469644 -3.828612 -6.804242 -0.980064 -8.103811 1.652997 -0.201280 1.207170 0.448670 -4.648791 1.479304 -8.010582 8.125718 11.031521 7.507747 -0.112355 8.980122 19.483110 5.075478 -1.592782 -14.009021 -1.805962 4.153987 48.703605 -7.055420 4.929860 10.320840 5.770032 1.446980 4.488937 -22.195464 17.025660 -9.562540 -6.626668 -51.800278 1.862095 -3.775206 3.379796 0.391570 0.671490 -0.151890 0.594790 -13.282604 6.280398 11.747848 11.909212 19.521014 7.748609 -144.314751 25.152181 -81.389205 2.053836 -1.547967 -0.477460 0.541950 0.254250 0.307360 
-2.560720 15.579570 -0.392110 -6.421493 -4.437874 -2.890941 -15.081555 12.044454 0.068684 26.328632 8.784114 -10.734213 28.762542 1.390233 26.132350 0.024407 7.004324 2.405147 -0.293550 -0.558290 -0.527430 18.891541 -9.137992 6.674439 -51.340105 8.127021 -13.507815 46.877387 -5.403781 -3.626039 -1.041396 -8.258927 1.533068 -0.272900 1.146150 0.470140 -4.548395 1.274702 -7.951510 8.813821 10.879254 10.221053 0.547523 9.112586 19.737931 5.032548 -1.875954 -14.038201 -2.230069 3.827045 50.671027 -6.432410 2.442770 9.203590 0.969072 1.646244 4.545825 -30.976853 18.363900 -12.961858 -15.237465 -56.896313 4.664157 -3.707431 3.419849 0.498510 0.601680 -0.166900 0.479350 -8.367416 6.085622 12.009703 20.448961 17.172178 10.483788 -153.387284 31.702092 -114.845182 1.974598 -1.565560 -0.482030 0.507560 0.367510 0.222710 
-2.793920 15.639860 -0.398690 -6.107135 -4.635000 -4.780164 -15.251063 12.592037 0.210367 22.778865 7.760744 -11.734494 31.955193 -0.221201 29.980307 0.206231 7.462016 2.203283 -0.293300 -0.583550 -0.488210 18.599847 -9.223885 6.421217 -49.781178 7.902251 -14.486293 48.234098 -7.868473 1.293579 -1.093973 -8.351393 1.470591 -0.345170 1.031310 0.497400 -3.853341 0.367561 -8.062954 6.330470 10.153681 13.903928 1.619383 9.323235 16.137570 5.228626 -1.271322 -14.011252 -0.623036 3.486333 55.141958 -7.176630 1.843310 9.963280 -3.326715 1.915186 4.839842 -40.466424 18.831824 -16.146095 -17.827068 -56.700219 5.339332 -3.645900 3.348048 0.546800 0.521080 -0.087710 0.433350 -4.848136 5.576327 10.877318 29.087897 11.197857 5.648965 -176.769298 48.521571 171.238032 1.950768 -1.709506 -0.408090 0.433270 0.370000 0.207960 
